<svg xmlns="http://www.w3.org/2000/svg" xmlns:xlink="http://www.w3.org/1999/xlink" width="2400" zoomAndPan="magnify" viewBox="0 0 1800 2250.000011" height="3000" preserveAspectRatio="xMidYMid meet" version="1.0"><defs><clipPath id="b6ec70af7a"><path d="M 0.398438 146 L 1799.597656 146 L 1799.597656 1488 L 0.398438 1488 Z M 0.398438 146 " clip-rule="nonzero"/></clipPath><clipPath id="9c74d9d7d8"><path d="M 0.398438 607 L 1799.597656 607 L 1799.597656 1949 L 0.398438 1949 Z M 0.398438 607 " clip-rule="nonzero"/></clipPath><clipPath id="8d65c6267a"><path d="M 0.398438 1024 L 1799.597656 1024 L 1799.597656 2249 L 0.398438 2249 Z M 0.398438 1024 " clip-rule="nonzero"/></clipPath></defs><g clip-path="url(#b6ec70af7a)"><path fill="#ff61a5" d="M 2035.203125 849.074219 C 2014.171875 727.992188 1896.027344 658.683594 1786.988281 633.726562 C 1762.746094 628.171875 1738.933594 624.820312 1716.753906 623.574219 C 1705.0625 622.902344 1693.804688 622.855469 1683.171875 623.335938 C 1666.449219 560.925781 1628.792969 505.988281 1577.339844 464.9375 C 1559.085938 450.28125 1539.0625 437.445312 1517.597656 426.667969 C 1468.875 402.097656 1412.773438 388.109375 1353.03125 388.109375 C 1350.347656 388.109375 1347.664062 388.253906 1344.980469 388.300781 C 1311.445312 250.023438 1175.671875 146.515625 1013.167969 146.515625 C 928.320312 146.515625 850.757812 174.777344 791.207031 221.429688 C 772.472656 236.132812 755.515625 252.65625 740.710938 270.714844 C 719.25 296.820312 702.191406 326.132812 690.644531 357.695312 C 635.648438 322.972656 568.863281 302.519531 496.808594 302.519531 C 312.550781 302.519531 162.597656 435.578125 157.089844 601.589844 C 156.992188 604.703125 156.945312 607.816406 156.945312 610.976562 C 152.25 609.875 147.507812 608.871094 142.714844 607.960938 L 142.667969 607.960938 C 119.578125 603.410156 95.667969 601.0625 71.09375 601.0625 C 43.210938 601.0625 16.09375 604.128906 -9.824219 609.875 L -9.871094 609.875 C -30.523438 614.425781 -50.402344 620.75 -69.375 628.605469 L -69.425781 628.605469 C -152.066406 662.707031 -216.933594 725.835938 -248.265625 803.667969 L -248.265625 803.714844 C -254.925781 820.289062 -260.050781 837.53125 -263.550781 855.300781 C -266.996094 872.878906 -268.769531 890.984375 -268.769531 909.472656 C -268.769531 942.808594 -262.925781 974.949219 -252.144531 1005.027344 L -219.234375 1069.832031 C -179.277344 1129.367188 -117.621094 1175.636719 -44.222656 1199.636719 C -37.945312 1201.695312 -31.578125 1203.609375 -25.109375 1205.335938 C -23.191406 1225.785156 -19.121094 1245.664062 -13.035156 1264.773438 C 9.722656 1336.621094 60.550781 1397.738281 127.960938 1437.683594 C 145.636719 1448.171875 164.46875 1457.175781 184.253906 1464.554688 C 224.066406 1479.449219 267.710938 1487.640625 313.414062 1487.640625 C 394.714844 1487.640625 469.308594 1461.679688 527.804688 1418.429688 C 529.242188 1417.375 530.679688 1416.324219 532.117188 1415.222656 C 550.65625 1429.398438 570.921875 1441.851562 592.578125 1452.199219 C 639.816406 1474.804688 693.664062 1487.640625 750.820312 1487.640625 C 813.535156 1487.640625 872.269531 1472.171875 922.714844 1445.253906 C 937.085938 1437.589844 950.742188 1429.015625 963.679688 1419.578125 C 973.261719 1426.570312 983.273438 1433.132812 993.667969 1439.167969 C 1046.464844 1469.824219 1109.222656 1487.640625 1176.535156 1487.640625 C 1227.222656 1487.640625 1283.039062 1480.410156 1337.125 1466.277344 C 1353.703125 1461.96875 1370.085938 1457.035156 1386.136719 1451.429688 C 1495.941406 1413.257812 1589.078125 1345.722656 1602.730469 1252.753906 C 1638.757812 1257.207031 1677.5625 1255.675781 1716.707031 1248.488281 C 1740.132812 1244.226562 1763.703125 1237.953125 1786.796875 1229.664062 C 1936.84375 1176.308594 2068.59375 1041.621094 2035.203125 849.074219 Z M 2035.203125 849.074219 " fill-opacity="1" fill-rule="nonzero"/></g><g clip-path="url(#9c74d9d7d8)"><path fill="#ff61a5" d="M 2035.203125 1309.757812 C 2014.171875 1188.675781 1896.027344 1119.367188 1786.988281 1094.414062 C 1762.746094 1088.855469 1738.933594 1085.503906 1716.753906 1084.257812 C 1705.0625 1083.589844 1693.804688 1083.539062 1683.171875 1084.019531 C 1666.449219 1021.609375 1628.792969 966.671875 1577.339844 925.621094 C 1559.085938 910.96875 1539.0625 898.128906 1517.597656 887.351562 C 1468.875 862.78125 1412.773438 848.796875 1353.03125 848.796875 C 1350.347656 848.796875 1347.664062 848.9375 1344.980469 848.988281 C 1311.445312 710.707031 1175.671875 607.203125 1013.167969 607.203125 C 928.320312 607.203125 850.757812 635.460938 791.207031 682.113281 C 772.472656 696.816406 755.515625 713.34375 740.710938 731.398438 C 719.25 757.503906 702.191406 786.816406 690.644531 818.382812 C 635.648438 783.65625 568.863281 763.203125 496.808594 763.203125 C 312.550781 763.203125 162.597656 896.261719 157.089844 1062.273438 C 156.992188 1065.386719 156.945312 1068.5 156.945312 1071.660156 C 152.25 1070.558594 147.507812 1069.554688 142.714844 1068.644531 L 142.667969 1068.644531 C 119.578125 1064.09375 95.667969 1061.746094 71.09375 1061.746094 C 43.210938 1061.746094 16.09375 1064.8125 -9.824219 1070.558594 L -9.871094 1070.558594 C -30.523438 1075.109375 -50.402344 1081.433594 -69.375 1089.289062 L -69.425781 1089.289062 C -152.066406 1123.390625 -216.933594 1186.519531 -248.265625 1264.351562 L -248.265625 1264.398438 C -254.925781 1280.972656 -260.050781 1298.214844 -263.550781 1315.984375 C -266.996094 1333.566406 -268.769531 1351.667969 -268.769531 1370.15625 C -268.769531 1403.492188 -262.925781 1435.632812 -252.144531 1465.710938 L -219.234375 1530.519531 C -179.277344 1590.054688 -117.621094 1636.324219 -44.222656 1660.320312 C -37.945312 1662.378906 -31.578125 1664.292969 -25.109375 1666.019531 C -23.191406 1686.472656 -19.121094 1706.347656 -13.035156 1725.460938 C 9.722656 1797.304688 60.550781 1858.421875 127.960938 1898.367188 C 145.636719 1908.859375 164.46875 1917.863281 184.253906 1925.238281 C 224.066406 1940.136719 267.710938 1948.324219 313.414062 1948.324219 C 394.714844 1948.324219 469.308594 1922.367188 527.804688 1879.113281 C 529.242188 1878.0625 530.679688 1877.007812 532.117188 1875.90625 C 550.65625 1890.082031 570.921875 1902.535156 592.578125 1912.882812 C 639.816406 1935.488281 693.664062 1948.324219 750.820312 1948.324219 C 813.535156 1948.324219 872.269531 1932.855469 922.714844 1905.9375 C 937.085938 1898.273438 950.742188 1889.699219 963.679688 1880.265625 C 973.261719 1887.257812 983.273438 1893.820312 993.667969 1899.855469 C 1046.464844 1930.507812 1109.222656 1948.324219 1176.535156 1948.324219 C 1227.222656 1948.324219 1283.039062 1941.09375 1337.125 1926.964844 C 1353.703125 1922.652344 1370.085938 1917.71875 1386.136719 1912.113281 C 1495.941406 1873.941406 1589.078125 1806.40625 1602.730469 1713.4375 C 1638.757812 1717.890625 1677.5625 1716.359375 1716.707031 1709.175781 C 1740.132812 1704.910156 1763.703125 1698.636719 1786.796875 1690.351562 C 1936.84375 1636.992188 2068.59375 1502.308594 2035.203125 1309.757812 Z M 2035.203125 1309.757812 " fill-opacity="1" fill-rule="nonzero"/></g><g clip-path="url(#8d65c6267a)"><path fill="#ff61a5" d="M 2165.46875 1807.289062 C 2142.027344 1672.347656 2010.355469 1595.105469 1888.832031 1567.296875 C 1861.816406 1561.105469 1835.277344 1557.367188 1810.554688 1555.980469 C 1797.527344 1555.230469 1784.980469 1555.179688 1773.128906 1555.710938 C 1754.492188 1486.160156 1712.527344 1424.933594 1655.179688 1379.183594 C 1634.835938 1362.851562 1612.519531 1348.546875 1588.597656 1336.535156 C 1534.292969 1309.152344 1471.769531 1293.5625 1405.1875 1293.5625 C 1402.199219 1293.5625 1399.207031 1293.726562 1396.21875 1293.777344 C 1358.84375 1139.671875 1207.523438 1024.316406 1026.414062 1024.316406 C 931.851562 1024.316406 845.40625 1055.8125 779.039062 1107.804688 C 758.160156 1124.191406 739.257812 1142.605469 722.761719 1162.730469 C 698.839844 1191.824219 679.832031 1224.492188 666.960938 1259.667969 C 605.667969 1220.96875 531.234375 1198.175781 450.929688 1198.175781 C 245.578125 1198.175781 78.457031 1346.464844 72.316406 1531.476562 C 72.210938 1534.945312 72.15625 1538.417969 72.15625 1541.941406 C 66.921875 1540.710938 61.636719 1539.589844 56.296875 1538.578125 L 56.242188 1538.578125 C 30.507812 1533.503906 3.863281 1530.890625 -23.527344 1530.890625 C -54.601562 1530.890625 -84.824219 1534.308594 -113.710938 1540.710938 L -113.761719 1540.710938 C -136.777344 1545.78125 -158.933594 1552.828125 -180.078125 1561.585938 L -180.132812 1561.585938 C -272.238281 1599.589844 -344.53125 1669.945312 -379.453125 1756.6875 L -379.453125 1756.738281 C -386.871094 1775.210938 -392.585938 1794.425781 -396.484375 1814.230469 C -400.328125 1833.820312 -402.304688 1853.996094 -402.304688 1874.601562 C -402.304688 1911.753906 -395.789062 1947.570312 -383.773438 1981.09375 L -347.09375 2053.316406 C -302.5625 2119.667969 -233.847656 2171.234375 -152.046875 2197.976562 C -145.050781 2200.269531 -137.953125 2202.40625 -130.742188 2204.328125 C -128.609375 2227.121094 -124.070312 2249.273438 -117.289062 2270.570312 C -91.925781 2350.640625 -35.273438 2418.753906 39.851562 2463.273438 C 59.554688 2474.960938 80.539062 2484.996094 102.589844 2493.21875 C 146.960938 2509.820312 195.601562 2518.945312 246.539062 2518.945312 C 337.148438 2518.945312 420.285156 2490.015625 485.476562 2441.8125 C 487.078125 2440.640625 488.683594 2439.464844 490.28125 2438.238281 C 510.945312 2454.039062 533.53125 2467.914062 557.667969 2479.445312 C 610.3125 2504.640625 670.328125 2518.945312 734.027344 2518.945312 C 803.921875 2518.945312 869.378906 2501.707031 925.601562 2471.707031 C 941.621094 2463.164062 956.839844 2453.609375 971.257812 2443.09375 C 981.933594 2450.886719 993.09375 2458.203125 1004.679688 2464.925781 C 1063.519531 2499.089844 1133.464844 2518.945312 1208.488281 2518.945312 C 1264.976562 2518.945312 1327.179688 2510.886719 1387.460938 2495.140625 C 1405.9375 2490.335938 1424.199219 2484.839844 1442.085938 2478.589844 C 1564.464844 2436.046875 1668.261719 2360.785156 1683.480469 2257.171875 C 1723.632812 2262.136719 1766.878906 2260.429688 1810.503906 2252.421875 C 1836.613281 2247.671875 1862.882812 2240.679688 1888.617188 2231.445312 C 2055.847656 2171.980469 2202.679688 2021.875 2165.46875 1807.289062 Z M 2165.46875 1807.289062 " fill-opacity="1" fill-rule="nonzero"/></g></svg>