<svg xmlns="http://www.w3.org/2000/svg" xmlns:xlink="http://www.w3.org/1999/xlink" width="2400" zoomAndPan="magnify" viewBox="0 0 1800 2250.000011" height="3000" preserveAspectRatio="xMidYMid meet" version="1.0"><defs><clipPath id="661e70a5d9"><path d="M 84.597656 656.015625 L 1696 656.015625 L 1696 1593 L 84.597656 1593 Z M 84.597656 656.015625 " clip-rule="nonzero"/></clipPath></defs><g clip-path="url(#661e70a5d9)"><path fill="#c2eae8" d="M 1692.039062 1146.773438 C 1677.363281 1062.277344 1594.9375 1013.910156 1518.863281 996.496094 C 1501.949219 992.617188 1485.335938 990.28125 1469.859375 989.410156 C 1461.707031 988.941406 1453.851562 988.910156 1446.429688 989.242188 C 1434.765625 945.691406 1408.492188 907.351562 1372.59375 878.707031 C 1359.859375 868.480469 1345.886719 859.519531 1330.914062 852 C 1296.917969 834.851562 1257.777344 825.09375 1216.097656 825.09375 C 1214.226562 825.09375 1212.355469 825.191406 1210.484375 825.226562 C 1187.085938 728.730469 1092.359375 656.496094 978.980469 656.496094 C 919.785156 656.496094 865.671875 676.21875 824.125 708.773438 C 811.054688 719.035156 799.222656 730.566406 788.894531 743.167969 C 773.917969 761.386719 762.019531 781.839844 753.964844 803.867188 C 715.589844 779.636719 668.996094 765.363281 618.726562 765.363281 C 490.171875 765.363281 385.554688 858.21875 381.710938 974.066406 C 381.644531 976.242188 381.609375 978.414062 381.609375 980.621094 C 378.332031 979.851562 375.023438 979.148438 371.683594 978.515625 L 371.648438 978.515625 C 355.539062 975.335938 338.859375 973.699219 321.710938 973.699219 C 302.257812 973.699219 283.339844 975.839844 265.257812 979.851562 L 265.222656 979.851562 C 250.816406 983.027344 236.945312 987.4375 223.710938 992.921875 L 223.675781 992.921875 C 166.019531 1016.71875 120.761719 1060.773438 98.898438 1115.089844 L 98.898438 1115.121094 C 94.253906 1126.6875 90.675781 1138.71875 88.238281 1151.121094 C 85.832031 1163.386719 84.59375 1176.023438 84.59375 1188.925781 C 84.59375 1212.1875 88.671875 1234.617188 96.195312 1255.605469 L 119.15625 1300.832031 C 147.035156 1342.378906 190.050781 1374.667969 241.257812 1391.414062 C 245.636719 1392.851562 250.082031 1394.1875 254.59375 1395.390625 C 255.929688 1409.664062 258.773438 1423.535156 263.015625 1436.871094 C 278.894531 1487.007812 314.359375 1529.660156 361.386719 1557.535156 C 373.722656 1564.855469 386.859375 1571.136719 400.660156 1576.285156 C 428.4375 1586.683594 458.886719 1592.398438 490.777344 1592.398438 C 547.496094 1592.398438 599.539062 1574.28125 640.351562 1544.097656 C 641.355469 1543.363281 642.359375 1542.628906 643.359375 1541.859375 C 656.296875 1551.753906 670.433594 1560.441406 685.542969 1567.664062 C 718.5 1583.441406 756.070312 1592.398438 795.945312 1592.398438 C 839.699219 1592.398438 880.679688 1581.601562 915.875 1562.816406 C 925.902344 1557.46875 935.429688 1551.484375 944.453125 1544.902344 C 951.136719 1549.78125 958.125 1554.359375 965.375 1558.570312 C 1002.210938 1579.964844 1046 1592.398438 1092.960938 1592.398438 C 1128.324219 1592.398438 1167.265625 1587.351562 1205 1577.488281 C 1216.566406 1574.480469 1227.996094 1571.039062 1239.195312 1567.128906 C 1315.804688 1540.488281 1380.785156 1493.359375 1390.308594 1428.480469 C 1415.445312 1431.589844 1442.519531 1430.519531 1469.828125 1425.507812 C 1486.171875 1422.53125 1502.617188 1418.152344 1518.730469 1412.371094 C 1623.414062 1375.132812 1715.335938 1281.144531 1692.039062 1146.773438 Z M 1692.039062 1146.773438 " fill-opacity="1" fill-rule="nonzero"/></g></svg>